<?xml version="1.0" encoding="utf-8"?>
<!-- Svg Vector Icons : http://www.onlinewebfonts.com/icon -->
<!DOCTYPE svg PUBLIC "-//W3C//DTD SVG 1.1//EN" "http://www.w3.org/Graphics/SVG/1.1/DTD/svg11.dtd">
<svg version="1.1" xmlns="http://www.w3.org/2000/svg" xmlns:xlink="http://www.w3.org/1999/xlink" x="0px" y="0px" viewBox="0 0 1000 1000" enable-background="new 0 0 1000 1000" xml:space="preserve">
<metadata> Svg Vector Icons : http://www.onlinewebfonts.com/icon </metadata>
<g>
<g>
<g>
<path fill="rgba(255,255,255,0.2)" d="M977.8,543.7c-9.9-11.8-24.4-18.6-39.8-18.6H802.2c-23.8,0-44.5,16.1-50.3,39.2C723.3,677,621.6,760.5,500,760.5c-121.6,0-223.3-83.5-251.8-196.2c-5.9-23-26.6-39.2-50.3-39.2H62c-15.3,0-29.9,6.8-39.8,18.5c-9.9,11.8-14,27.3-11.4,42.4C51.5,819.5,254.9,996.9,500,996.9c245.1,0,448.5-177.5,489.2-410.9C991.9,571,987.7,555.4,977.8,543.7z"/>
<path fill="rgba(255,255,255,0.2)" d="M62.2,473.6h136c23.7,0,44.3-16,50.3-39c29-112.1,130.3-195,251.5-195c121.2,0,222.6,82.9,251.5,195c5.9,22.9,26.6,39,50.3,39h136c15.4,0,30-6.8,39.8-18.6c9.9-11.8,14-27.4,11.3-42.5C947.6,179.8,744.6,3.1,500,3.1C255.5,3.1,52.4,179.8,11.1,412.4c-2.7,15.1,1.5,30.7,11.3,42.5C32.3,466.7,46.9,473.6,62.2,473.6z"/>
<path fill="rgba(255,255,255,0.2)" d="M338.9,500c0,88.8,72.3,161.2,161.1,161.2c88.9,0,161.2-72.3,161.2-161.2c0-88.8-72.3-161.2-161.2-161.2C411.2,338.8,338.9,411.1,338.9,500z M581.2,500c0,44.8-36.4,81.2-81.2,81.2c-44.7,0-81.2-36.4-81.2-81.2c0-44.8,36.4-81.2,81.2-81.2C544.8,418.8,581.2,455.2,581.2,500z"/></g></g><g></g><g></g><g></g><g></g><g></g><g></g><g></g><g></g><g></g><g></g><g></g><g></g><g></g><g></g><g></g></g>
</svg>
